:FULLY-SPECIFIED
:FORCE-ALL-JOINTS-BE-3DOF
:DEGREES
1631
root -14.8391 14.5691 19.3658 705.9 -70.2868 374.084
lfemur 12.299 -11.6029 -11.5976
ltibia 29.0566 0 0
lfoot -21.6076 29.0557 0
ltoes -43.5256 0 0
rfemur -52.8425 -16.1472 8.74259
rtibia 67.026 0 0
rfoot -10.0745 11.9606 0
rtoes 4.15557 0 0
lowerback 12.6977 4.36639 -7.55904
upperback -0.660547 4.58654 -0.602108
thorax -8.45064 2.52617 2.65977
lowerneck 0.922205 -13.1342 -12.8401
upperneck 3.78986 -18.0216 10.2435
head 3.00843 -9.006 4.3374
lclavicle 2.47165e-14 -8.01685e-15 0
lhumerus -75.7368 -15.2483 105.526
lradius 105.575 0 0
lwrist 56.3653 0 0
lhand -12.3741 50.0695 0
lfingers 7.12502 0 0
lthumb 13.659 79.1437 0
rclavicle 2.47165e-14 -8.01685e-15 0
rhumerus 48.8547 -6.09171 -56.6703
rradius 12.6731 0 0
rwrist 27.3144 0 0
rhand -20.7011 -36.3426 0
rfingers 7.12502 0 0
rthumb 5.67581 -66.4306 0
1632
root -14.8621 14.5686 19.3706 705.509 -70.3655 374.577
lfemur 12.2995 -11.5808 -11.6958
ltibia 28.8976 0 0
lfoot -21.5425 29.0936 0
ltoes -43.497 0 0
rfemur -52.9078 -16.1111 8.73981
rtibia 67.1626 0 0
rfoot -10.2308 11.8292 0
rtoes 4.06666 0 0
lowerback 12.7032 4.33543 -7.56475
upperback -0.673428 4.54644 -0.57162
thorax -8.46315 2.50873 2.70552
lowerneck 0.953251 -13.1088 -12.8191
upperneck 3.75344 -17.9896 10.2307
head 2.99217 -8.99219 4.3355
lclavicle 2.60309e-14 -7.53058e-15 0
lhumerus -75.4083 -15.391 105.436
lradius 105.381 0 0
lwrist 56.2295 0 0
lhand -13.2251 49.8145 0
lfingers 7.12502 0 0
lthumb 12.8432 78.9918 0
rclavicle 2.60309e-14 -7.53058e-15 0
rhumerus 48.566 -5.93442 -56.8327
rradius 13.2031 0 0
rwrist 27.0931 0 0
rhand -20.4391 -36.1221 0
rfingers 7.12502 0 0
rthumb 5.92764 -66.1866 0
1633
root -14.8851 14.5681 19.3753 705.151 -70.4477 375.033
lfemur 12.2801 -11.5651 -11.7948
ltibia 28.7714 0 0
lfoot -21.4838 29.1346 0
ltoes -43.4697 0 0
rfemur -52.9637 -16.0569 8.72579
rtibia 67.2606 0 0
rfoot -10.3681 11.6912 0
rtoes 3.96351 0 0
lowerback 12.7106 4.30265 -7.57135
upperback -0.684013 4.50371 -0.539634
thorax -8.47388 2.48991 2.75396
lowerneck 0.988793 -13.0874 -12.8017
upperneck 3.71178 -17.9632 10.226
head 2.97525 -8.98136 4.33657
lclavicle 2.72442e-14 -7.05029e-15 0
lhumerus -75.0691 -15.548 105.342
lradius 105.193 0 0
lwrist 56.0924 0 0
lhand -14.0326 49.5631 0
lfingers 7.12502 0 0
lthumb 12.0691 78.8389 0
rclavicle 2.72442e-14 -7.05029e-15 0
rhumerus 48.2898 -5.76818 -56.9641
rradius 13.7596 0 0
rwrist 26.8287 0 0
rhand -20.1673 -35.9138 0
rfingers 7.12502 0 0
rthumb 6.1889 -65.9536 0
1634
root -14.9081 14.5676 19.3801 704.832 -70.5333 375.446
lfemur 12.2406 -11.5567 -11.8942
ltibia 28.6795 0 0
lfoot -21.432 29.1793 0
ltoes -43.4439 0 0
rfemur -53.0096 -15.9836 8.69967
rtibia 67.3168 0 0
rfoot -10.4849 11.5469 0
rtoes 3.84566 0 0
lowerback 12.7202 4.26809 -7.57888
upperback -0.692131 4.45842 -0.506182
thorax -8.48265 2.46973 2.80504
lowerneck 1.0292 -13.0703 -12.7882
upperneck 3.66464 -17.9431 10.2303
head 2.9577 -8.97391 4.3409
lclavicle 2.83484e-14 -6.57728e-15 0
lhumerus -74.721 -15.7198 105.246
lradius 105.013 0 0
lwrist 55.9553 0 0
lhand -14.7921 49.3163 0
lfingers 7.12502 0 0
lthumb 11.341 78.6853 0
rclavicle 2.83484e-14 -6.57728e-15 0
rhumerus 48.0296 -5.59361 -57.0613
rradius 14.3407 0 0
rwrist 26.5205 0 0
rhand -19.8862 -35.719 0
rfingers 7.12502 0 0
rthumb 6.45903 -65.7331 0
1635
root -14.9311 14.5671 19.3848 704.557 -70.6221 375.809
lfemur 12.1804 -11.5567 -11.9937
ltibia 28.6241 0 0
lfoot -21.3878 29.2281 0
ltoes -43.4197 0 0
rfemur -53.0447 -15.89 8.66057
rtibia 67.3279 0 0
rfoot -10.5799 11.3968 0
rtoes 3.71267 0 0
lowerback 12.7317 4.23181 -7.58738
upperback -0.697612 4.41063 -0.471296
thorax -8.48928 2.44819 2.85875
lowerneck 1.07484 -13.0581 -12.7792
upperneck 3.61174 -17.9301 10.2444
head 2.93951 -8.97021 4.34876
lclavicle 2.93355e-14 -6.11282e-15 0
lhumerus -74.3654 -15.9068 105.147
lradius 104.843 0 0
lwrist 55.8196 0 0
lhand -15.4993 49.0752 0
lfingers 7.12502 0 0
lthumb 10.6632 78.5316 0
rclavicle 2.93355e-14 -6.11282e-15 0
rhumerus 47.7891 -5.41135 -57.1211
rradius 14.9444 0 0
rwrist 26.1679 0 0
rhand -19.5965 -35.5394 0
rfingers 7.12502 0 0
rthumb 6.73743 -65.5266 0
1636
root -14.9541 14.5665 19.3896 704.331 -70.7142 376.116
lfemur 12.0991 -11.566 -12.093
ltibia 28.6067 0 0
lfoot -21.3518 29.2815 0
ltoes -43.3974 0 0
rfemur -53.0684 -15.7752 8.60762
rtibia 67.2908 0 0
rfoot -10.6514 11.2412 0
rtoes 3.56407 0 0
lowerback 12.7453 4.19386 -7.59689
upperback -0.700283 4.36042 -0.43501
thorax -8.49361 2.42532 2.91503
lowerneck 1.12608 -13.0513 -12.7751
upperneck 3.55285 -17.9249 10.2691
head 2.92071 -8.97065 4.36045
lclavicle 3.01976e-14 -5.65822e-15 0
lhumerus -74.0043 -16.1095 105.046
lradius 104.684 0 0
lwrist 55.6866 0 0
lhand -16.1495 48.8409 0
lfingers 7.12502 0 0
lthumb 10.0399 78.3785 0
rclavicle 3.01976e-14 -5.65822e-15 0
rhumerus 47.5717 -5.22203 -57.1405
rradius 15.5688 0 0
rwrist 25.7703 0 0
rhand -19.2988 -35.3762 0
rfingers 7.12502 0 0
rthumb 7.02353 -65.3356 0
1637
root -14.9771 14.566 19.3943 704.161 -70.8092 376.362
lfemur 11.9963 -11.5855 -12.1917
ltibia 28.6294 0 0
lfoot -21.3245 29.3399 0
ltoes -43.3772 0 0
rfemur -53.0798 -15.638 8.53997
rtibia 67.202 0 0
rfoot -10.6979 11.0805 0
rtoes 3.3994 0 0
lowerback 12.7609 4.1543 -7.60743
upperback -0.699973 4.30783 -0.397355
thorax -8.49546 2.40112 2.97386
lowerneck 1.1833 -13.0505 -12.7764
upperneck 3.48769 -17.9283 10.3052
head 2.90131 -8.97561 4.37624
lclavicle 3.09266e-14 -5.21476e-15 0
lhumerus -73.6391 -16.3284 104.944
lradius 104.539 0 0
lwrist 55.5576 0 0
lhand -16.7385 48.6143 0
lfingers 7.12502 0 0
lthumb 9.47553 78.2263 0
rclavicle 3.09266e-14 -5.21476e-15 0
rhumerus 47.381 -5.0263 -57.1162
rradius 16.212 0 0
rwrist 25.3272 0 0
rhand -18.9937 -35.231 0
rfingers 7.12502 0 0
rthumb 7.31676 -65.1615 0
1638
root -15 14.5655 19.3991 704.052 -70.9073 376.54
lfemur 11.8716 -11.6164 -12.2896
ltibia 28.6938 0 0
lfoot -21.3067 29.4037 0
ltoes -43.3593 0 0
rfemur -53.0783 -15.4774 8.45674
rtibia 67.0584 0 0
rfoot -10.7179 10.9151 0
rtoes 3.21822 0 0
lowerback 12.7786 4.11319 -7.61906
upperback -0.696512 4.25294 -0.358363
thorax -8.49465 2.37562 3.03521
lowerneck 1.24686 -13.0562 -12.7834
upperneck 3.41601 -17.941 10.3535
head 2.88131 -8.98547 4.39641
lclavicle 3.15145e-14 -4.78373e-15 0
lhumerus -73.2716 -16.564 104.842
lradius 104.41 0 0
lwrist 55.4339 0 0
lhand -17.2617 48.3964 0
lfingers 7.12502 0 0
lthumb 8.97424 78.0757 0
rclavicle 3.15145e-14 -4.78373e-15 0
rhumerus 47.2205 -4.82478 -57.0452
rradius 16.8721 0 0
rwrist 24.838 0 0
rhand -18.6817 -35.1052 0
rfingers 7.12502 0 0
rthumb 7.61654 -65.006 0
1639
root -15.023 14.565 19.4038 704.01 -71.0083 376.644
lfemur 11.7244 -11.6595 -12.3862
ltibia 28.8019 0 0
lfoot -21.2988 29.4734 0
ltoes -43.3438 0 0
rfemur -53.0631 -15.2923 8.35706
rtibia 66.8567 0 0
rfoot -10.71 10.7454 0
rtoes 3.02007 0 0
lowerback 12.7983 4.07057 -7.6318
upperback -0.689728 4.19581 -0.318069
thorax -8.491 2.34883 3.09904
lowerneck 1.31712 -13.0689 -12.7967
upperneck 3.33755 -17.9637 10.4147
head 2.86073 -9.00062 4.42124
lclavicle 3.19535e-14 -4.36642e-15 0
lhumerus -72.9035 -16.8167 104.739
lradius 104.298 0 0
lwrist 55.3168 0 0
lhand -17.7147 48.1884 0
lfingers 7.12502 0 0
lthumb 8.54032 77.9273 0
rclavicle 3.19535e-14 -4.36642e-15 0
rhumerus 47.0939 -4.61812 -56.9242
rradius 17.5471 0 0
rwrist 24.3019 0 0
rhand -18.3635 -35.0003 0
rfingers 7.12502 0 0
rthumb 7.92228 -64.8705 0
1640
root -15.046 14.5645 19.4086 704.041 -71.112 376.668
lfemur 11.5545 -11.7158 -12.4812
ltibia 28.9555 0 0
lfoot -21.3016 29.5495 0
ltoes -43.3309 0 0
rfemur -53.0335 -15.0816 8.24007
rtibia 66.5937 0 0
rfoot -10.6725 10.5717 0
rtoes 2.80449 0 0
lowerback 12.8202 4.02651 -7.6457
upperback -0.679449 4.13651 -0.276503
thorax -8.48434 2.32077 3.16531
lowerneck 1.39447 -13.0892 -12.8167
upperneck 3.25206 -17.9973 10.4898
head 2.83957 -9.02143 4.45103
lclavicle 3.22353e-14 -3.96412e-15 0
lhumerus -72.5364 -17.0871 104.636
lradius 104.205 0 0
lwrist 55.2078 0 0
lhand -18.0931 47.9913 0
lfingers 7.12502 0 0
lthumb 8.17806 77.7814 0
rclavicle 3.22353e-14 -3.96412e-15 0
rhumerus 47.0046 -4.40694 -56.7502
rradius 18.235 0 0
rwrist 23.7185 0 0
rhand -18.0397 -34.9176 0
rfingers 7.12502 0 0
rthumb 8.23342 -64.7566 0
1641
root -15.069 14.564 19.4133 704.149 -71.2184 376.606
lfemur 11.3614 -11.7863 -12.5744
ltibia 29.1564 0 0
lfoot -21.3156 29.6324 0
ltoes -43.3209 0 0
rfemur -52.9888 -14.8443 8.10491
rtibia 66.266 0 0
rfoot -10.604 10.3944 0
rtoes 2.57102 0 0
lowerback 12.8441 3.98106 -7.66079
upperback -0.665505 4.07509 -0.233699
thorax -8.4745 2.29144 3.234
lowerneck 1.47926 -13.1175 -12.8438
upperneck 3.15927 -18.0424 10.5794
head 2.81786 -9.0483 4.48605
lclavicle 3.23522e-14 -3.57812e-15 0
lhumerus -72.1721 -17.3756 104.534
lradius 104.133 0 0
lwrist 55.108 0 0
lhand -18.3923 47.806 0
lfingers 7.12502 0 0
lthumb 7.89172 77.6387 0
rclavicle 3.23522e-14 -3.57812e-15 0
rhumerus 46.9563 -4.19189 -56.5199
rradius 18.9341 0 0
rwrist 23.0872 0 0
rhand -17.7109 -34.8587 0
rfingers 7.12502 0 0
rthumb 8.54937 -64.6656 0
1642
root -14.9854 14.5676 19.4614 704.253 -71.3472 376.538
lfemur 11.1435 -11.8791 -12.668
ltibia 29.4134 0 0
lfoot -21.3417 29.7204 0
ltoes -43.3257 0 0
rfemur -52.9353 -14.569 7.94461
rtibia 65.8604 0 0
rfoot -10.501 10.2091 0
rtoes 2.30139 0 0
lowerback 12.8719 3.93163 -7.6786
upperback -0.646973 4.00785 -0.188016
thorax -8.46092 2.25911 3.30859
lowerneck 1.57269 -13.152 -12.8763
upperneck 3.05676 -18.0963 10.6816
head 2.79439 -9.0799 4.52582
lclavicle 3.22824e-14 -3.20193e-15 0
lhumerus -71.7827 -17.6877 104.417
lradius 104.07 0 0
lwrist 55.0036 0 0
lhand -18.6275 47.6222 0
lfingers 7.12502 0 0
lthumb 7.66686 77.4906 0
rclavicle 3.22824e-14 -3.20193e-15 0
rhumerus 46.9186 -3.96385 -56.2423
rradius 19.6766 0 0
rwrist 22.3692 0 0
rhand -17.3615 -34.8214 0
rfingers 7.12502 0 0
rthumb 8.88509 -64.594 0
1643
root -14.9018 14.5711 19.5095 704.27 -71.5163 376.545
lfemur 10.8999 -12.0004 -12.7645
ltibia 29.7321 0 0
lfoot -21.38 29.8115 0
ltoes -43.3558 0 0
rfemur -52.8797 -14.2466 7.75402
rtibia 65.3692 0 0
rfoot -10.3624 10.0111 0
rtoes 1.97972 0 0
lowerback 12.9051 3.87583 -7.70045
upperback -0.62324 3.93138 -0.137937
thorax -8.44333 2.22217 3.39228
lowerneck 1.67535 -13.1901 -12.9121
upperneck 2.94268 -18.1556 10.7936
head 2.76806 -9.11459 4.56955
lclavicle 3.20165e-14 -2.82809e-15 0
lhumerus -71.3411 -18.0279 104.27
lradius 104.002 0 0
lwrist 54.8802 0 0
lhand -18.8178 47.4291 0
lfingers 7.12502 0 0
lthumb 7.48505 77.3286 0
rclavicle 3.20165e-14 -2.82809e-15 0
rhumerus 46.8597 -3.7138 -55.9293
rradius 20.4942 0 0
rwrist 21.5306 0 0
rhand -16.9767 -34.8021 0
rfingers 7.12502 0 0
rthumb 9.25478 -64.5366 0
1644
root -14.8183 14.5747 19.5577 704.208 -71.7227 376.62
lfemur 10.6313 -12.1479 -12.8639
ltibia 30.1095 0 0
lfoot -21.4298 29.9054 0
ltoes -43.4092 0 0
rfemur -52.8216 -13.88 7.53495
rtibia 64.7971 0 0
rfoot -10.1899 9.80087 0
rtoes 1.60916 0 0
lowerback 12.9434 3.81399 -7.72609
upperback -0.594599 3.84617 -0.0836786
thorax -8.42197 2.18089 3.48456
lowerneck 1.78674 -13.2317 -12.9511
upperneck 2.81761 -18.2199 10.9149
head 2.73905 -9.15219 4.61706
lclavicle 3.15651e-14 -2.45639e-15 0
lhumerus -70.8501 -18.3949 104.096
lradius 103.93 0 0
lwrist 54.7388 0 0
lhand -18.9651 47.2273 0
lfingers 7.12502 0 0
lthumb 7.34461 77.1535 0
rclavicle 3.15651e-14 -2.45639e-15 0
rhumerus 46.7811 -3.44255 -55.5824
rradius 21.3838 0 0
rwrist 20.5777 0 0
rhand -16.5584 -34.7996 0
rfingers 7.12502 0 0
rthumb 9.65672 -64.4925 0
